<?xml version="1.0" encoding="UTF-8"?> <svg xmlns="http://www.w3.org/2000/svg" xmlns:xlink="http://www.w3.org/1999/xlink" width="82" height="82" viewBox="0 0 82 82"><defs><linearGradient id="a" x1="0.5" x2="0.5" y2="1" gradientUnits="objectBoundingBox"><stop offset="0" stop-color="#01bdee"></stop><stop offset="1" stop-color="#0168ec"></stop></linearGradient></defs><g transform="translate(2939.5 6956)"><rect width="82" height="82" rx="12" transform="translate(-2939.5 -6956)" fill="url(#a)"></rect><g transform="translate(-2933.5 -6951)"><path d="M24.61,23.691H14.228L25.807,3.606A2.213,2.213,0,0,0,21.972,1.4L20.357,4.259l.05-.368L18.816,1.128A2.21,2.21,0,0,0,15.794.291h0A2.21,2.21,0,0,0,14.957,3.3l2.98,5.14L9.121,23.691H2.29A2.269,2.269,0,0,0,0,25.758a2.219,2.219,0,0,0,2.21,2.353l24.279-.042.075-.251a3.424,3.424,0,0,0-1.959-4.127Z" transform="translate(15.216 17.509)" fill="#fff"></path><path d="M17.094,14.467H9.559L1.187,0a8.807,8.807,0,0,0,0,8.833L11.51,26.665a2.21,2.21,0,0,0,3.826-2.21l-3.215-5.567h4.948a2.21,2.21,0,1,0,0-4.42Z" transform="translate(37.475 26.732)" fill="#fff"></path><path d="M3.815.029,3.045.1.291,4.877A2.21,2.21,0,0,0,1.128,7.9h0a2.2,2.2,0,0,0,3.014-.837l3.29-5.718A4.287,4.287,0,0,0,3.815.029Z" transform="translate(18.346 46.193)" fill="#fff"></path></g></g></svg> 