<?xml version="1.0" encoding="UTF-8"?> <svg xmlns="http://www.w3.org/2000/svg" xmlns:xlink="http://www.w3.org/1999/xlink" width="82" height="82" viewBox="0 0 82 82"><defs><linearGradient id="a" x1="0.5" x2="0.5" y2="1" gradientUnits="objectBoundingBox"><stop offset="0" stop-color="#81c7e9"></stop><stop offset="1" stop-color="#1b9ad7"></stop></linearGradient></defs><g transform="translate(3230.5 7180)"><rect width="82" height="82" rx="12" transform="translate(-3230.5 -7180)" fill="url(#a)"></rect><g transform="translate(-3226.5 -7175)"><path d="M34.025,0H3.3A3.273,3.273,0,0,0,0,3.35V24.682A3.349,3.349,0,0,0,3.3,28.03H34.025a3.349,3.349,0,0,0,3.349-3.349V3.316A3.282,3.282,0,0,0,34.025,0Z" transform="translate(18.167 19.397)" fill="#fff"></path><path d="M0,9.557V0L8.771,4.648Z" transform="translate(33 27)" fill="#59b6e2"></path><path d="M34.234,1.34a1.75,1.75,0,0,1-1.758,1.775H1.75A1.741,1.741,0,0,1,0,1.34V0H34.234Z" transform="translate(19.716 42.74)" fill="#59b6e2"></path><path d="M12.876.011A.77.77,0,0,0,12.232.9l.712,4.345H1.6L2.294.932A.779.779,0,0,0,.762.681L0,5.42a1.465,1.465,0,0,0,1.524,1.39H13a1.473,1.473,0,0,0,1.515-1.566L13.772.631a.779.779,0,0,0-.9-.62Z" transform="translate(29.118 50.012)" fill="#fff"></path></g></g></svg> 