<?xml version="1.0" encoding="UTF-8"?> <svg xmlns="http://www.w3.org/2000/svg" xmlns:xlink="http://www.w3.org/1999/xlink" width="82" height="82" viewBox="0 0 82 82"><defs><linearGradient id="a" x1="0.5" x2="0.5" y2="1" gradientUnits="objectBoundingBox"><stop offset="0" stop-color="#76b743"></stop><stop offset="1" stop-color="#3e8b00"></stop></linearGradient></defs><g transform="translate(2260.5 7180)"><rect width="82" height="82" rx="12" transform="translate(-2260.5 -7180)" fill="url(#a)"></rect><g transform="translate(-2255.5 -7175)"><path d="M44.95,2.679a.963.963,0,0,0-1.189.678L43.125,5.7H8.523l.695-3.248a1.08,1.08,0,0,0,0-.4A2.612,2.612,0,0,0,6.706,0H.963a.963.963,0,0,0,0,1.926h5.71a.67.67,0,0,1,.6.377L6.388,6.488h0a1.08,1.08,0,0,0,0,.4h0l3.935,17.247-1.03,3.675a2.319,2.319,0,0,0,2.277,2.78H39.064a.963.963,0,1,0,0-1.926H11.579a.377.377,0,0,1-.31-.151.4.4,0,0,1-.1-.251l.9-3.207,26.581-2.88A2.57,2.57,0,0,0,41.166,20.2L45.628,3.86A.971.971,0,0,0,44.95,2.679Z" transform="translate(13.169 15.899)" fill="#fff"></path><path d="M0,3.874A3.868,3.868,0,1,1,3.871,7.736,3.868,3.868,0,0,1,0,3.874Z" transform="translate(22.496 48.366)" fill="#fff"></path><path d="M0,3.879A3.868,3.868,0,1,1,3.874,7.736H3.867A3.868,3.868,0,0,1,0,3.879Z" transform="translate(45.46 48.366)" fill="#fff"></path></g></g></svg> 