<?xml version="1.0" encoding="UTF-8"?> <svg xmlns="http://www.w3.org/2000/svg" xmlns:xlink="http://www.w3.org/1999/xlink" width="82" height="82" viewBox="0 0 82 82"><defs><linearGradient id="a" x1="0.5" y1="0.006" x2="0.5" y2="1" gradientUnits="objectBoundingBox"><stop offset="0" stop-color="#ffa100"></stop><stop offset="1" stop-color="#ff5c00"></stop></linearGradient></defs><g transform="translate(2842.5 7180)"><rect width="82" height="82" rx="12" transform="translate(-2842.5 -7180)" fill="url(#a)"></rect><g transform="translate(-2837.5 -7175)"><path d="M0,7.9s5.484.26,12.056,5.375c6.112-4.647,11.495-6.354,17.523-5.3C27.787,1.951,24.606,0,24.606,0L12.223,4.889,0,.159Z" transform="translate(23.819 35.372)" fill="#fff"></path><path d="M4.186,6.7V0S.594,4.647,0,7.091A26.791,26.791,0,0,1,4.186,6.7Z" transform="translate(18.494 36.335)" fill="#fff"></path><path d="M25.552,0,0,9.946l12.625,4.965,10.767-4.655a.946.946,0,0,1-.084-.368c0-.837,1.03-1.457,2.294-1.457S27.9,9.084,27.9,9.887s-1.021,1.457-2.294,1.457a3.148,3.148,0,0,1-1.3-.26L14.182,15.53l11.495,4.521L51.1,9.862Z" transform="translate(10.448 18.904)" fill="#fff"></path><path d="M1.256,0h.753A1.256,1.256,0,0,1,3.265,1.256V7.828H0V1.256A1.256,1.256,0,0,1,1.256,0Z" transform="translate(21.575 45.268)" fill="#fff"></path></g></g></svg> 