<?xml version="1.0" encoding="UTF-8"?> <svg xmlns="http://www.w3.org/2000/svg" xmlns:xlink="http://www.w3.org/1999/xlink" width="82" height="82" viewBox="0 0 82 82"><defs><linearGradient id="a" x1="0.5" x2="0.5" y2="1" gradientUnits="objectBoundingBox"><stop offset="0" stop-color="#81c7e9"></stop><stop offset="1" stop-color="#1b9ad7"></stop></linearGradient></defs><g transform="translate(3036.5 7180)"><rect width="82" height="82" rx="12" transform="translate(-3036.5 -7180)" fill="url(#a)"></rect><g transform="translate(-3031.5 -7175)"><path d="M5.718,1.34V0H0V1.34H2.127V6.79H3.6V1.34Z" transform="translate(52.803 39.767)" fill="#fff"></path><path d="M6.723,0H5.107L3.751,3.927l-.2.62c-.059.2-.1.368-.134.5a2.174,2.174,0,0,0-.151-.511l-.2-.611L1.674,0H0L2.629,6.79h1.44Z" transform="translate(58.956 39.767)" fill="#fff"></path><path d="M0,6.756V0H3.542c1.825,0,2.57.628,2.57,1.758a1.367,1.367,0,0,1-.838,1.315A1.507,1.507,0,0,1,6.279,4.579c0,1.373-.913,2.177-2.755,2.177Z" transform="translate(22.002 39.793)" fill="#fff"></path><path d="M0,6.756V0H2.076V6.756Z" transform="translate(29.043 39.793)" fill="#fff"></path><path d="M4.78,6.756,3.022,4.521C2.7,4.111,2.068,3.24,1.875,2.939a14.835,14.835,0,0,1,.067,1.75V6.756H0V0H1.792L3.407,1.993a17.648,17.648,0,0,1,1.139,1.6,17.246,17.246,0,0,1-.059-1.75V0H6.438V6.756Z" transform="translate(32.14 39.793)" fill="#fff"></path><path d="M3.2,6.857C1.356,6.857,0,6.02,0,3.868V0H2.076V3.868c0,.837.36,1.34,1.155,1.34s1.13-.511,1.13-1.34V0H6.438V3.868C6.438,6.011,5.082,6.857,3.2,6.857Z" transform="translate(39.29 39.793)" fill="#fff"></path><path d="M3.1,6.961A6.187,6.187,0,0,1,0,6.124l.988-1.44a4.722,4.722,0,0,0,2.152.678c.72,0,.954-.117.954-.435s-.26-.4-1.247-.62C1.072,3.93.226,3.47.226,2.138S1.348,0,3.114,0a5.14,5.14,0,0,1,2.93.787L5.057,2.256a3.717,3.717,0,0,0-2.043-.636c-.611,0-.753.167-.753.41s.26.368,1.206.569c1.842.41,2.662.929,2.662,2.193C6.128,6.358,4.856,6.961,3.1,6.961Z" transform="translate(46.155 39.689)" fill="#fff"></path><path d="M2.868,5.212a2.612,2.612,0,1,0,0-5.2,2.612,2.612,0,1,0,0,5.2Z" transform="translate(14.94 33.359)" fill="#f08700"></path><path d="M.993.157A.561.561,0,0,1,.809.91a.5.5,0,0,1-.737,0A.569.569,0,0,1,.257.157a.511.511,0,0,1,.737,0Z" transform="translate(15.885 34.21)" fill="#fff"></path><path d="M0,.507a4.4,4.4,0,0,0,.561,0A1.549,1.549,0,0,0,.938.39L1.122.332H.963a1.741,1.741,0,0,0-.385,0,.938.938,0,0,0-.368.1A2.16,2.16,0,0,1,0,.507Z" transform="translate(21.29 30.469)" fill="#fff"></path><path d="M0,.542A2.336,2.336,0,0,1,.469.349,3.55,3.55,0,0,1,1.03.282a1.021,1.021,0,0,1,.293,0h.092a.427.427,0,0,0-.142.059.837.837,0,0,1-.226.126A2.93,2.93,0,0,1,.435.559a1.54,1.54,0,0,1-.285,0A.9.9,0,0,1,0,.542Z" transform="translate(21.407 29.916)" fill="#fff"></path><path d="M0,.54A6.924,6.924,0,0,0,.687.364a1.825,1.825,0,0,1,.544-.05c.109,0,.536-.042.536-.042L1.34.456A2.051,2.051,0,0,1,.72.565H.234Z" transform="translate(22.069 30.562)" fill="#fff"></path><path d="M0,.544A.837.837,0,0,0,.368.485,1.457,1.457,0,0,1,.737.36h.276L.812.3A1.407,1.407,0,0,0,.477.3,2.679,2.679,0,0,0,.151.452Z" transform="translate(21.19 29.671)" fill="#fff"></path><path d="M.2.357a.712.712,0,0,1,.327,0H.712A.444.444,0,0,1,.561.474a.435.435,0,0,1-.293,0C.168.474.118.415.126.382S.2.357.2.357Z" transform="translate(22.454 30.268)" fill="#fff"></path><path d="M.167.193h.5V.645h-.5V.193Z" transform="translate(22.529 36.72)" fill="#fff"></path><path d="M.172.193H.666V.645H.172V.193Z" transform="translate(24.392 36.72)" fill="#fff"></path><path d="M0,.293H20.763V.544H0V.293Z" transform="translate(26.422 35.523)" fill="#fff"></path><path d="M0,.293H1.373V.544H0V.293Z" transform="translate(21.198 35.523)" fill="#fff"></path><path d="M.435.821a.419.419,0,0,0,.427-.4.41.41,0,0,0-.427-.4A.419.419,0,0,0,0,.419.427.427,0,0,0,.435.821Z" transform="translate(46.75 35.523)" fill="#fff"></path><path d="M.167.188h.5v.46h-.5V.188Z" transform="translate(23.149 36.155)" fill="#fff"></path><path d="M.167.188h.5v.46h-.5V.188Z" transform="translate(23.768 36.155)" fill="#fff"></path><path d="M.172.188H.666v.46H.172V.188Z" transform="translate(24.392 36.155)" fill="#fff"></path><path d="M.167.188h.5v.46h-.5V.188Z" transform="translate(25.635 36.155)" fill="#fff"></path><path d="M.167.188h.5v.46h-.5V.188Z" transform="translate(22.529 35.586)" fill="#fff"></path><path d="M.167.188h.5v.46h-.5V.188Z" transform="translate(23.149 35.586)" fill="#fff"></path><path d="M.167.188h.5v.46h-.5V.188Z" transform="translate(23.149 35.016)" fill="#fff"></path><path d="M.167.188h.5v.46h-.5V.188Z" transform="translate(23.768 35.016)" fill="#fff"></path><path d="M.172.188H.666v.46H.172V.188Z" transform="translate(24.392 35.016)" fill="#fff"></path><path d="M.167.188h.5v.46h-.5V.188Z" transform="translate(25.016 35.016)" fill="#fff"></path><path d="M.172.188H.666v.46H.172V.188Z" transform="translate(24.392 33.886)" fill="#fff"></path><path d="M.167.188h.5v.46h-.5V.188Z" transform="translate(25.016 33.886)" fill="#fff"></path><path d="M.167.188h.5v.46h-.5V.188Z" transform="translate(26.255 33.886)" fill="#fff"></path><path d="M.167.188h.5v.46h-.5V.188Z" transform="translate(27.502 33.886)" fill="#fff"></path><path d="M.167.188h.5v.46h-.5V.188Z" transform="translate(27.502 33.317)" fill="#fff"></path><path d="M.167.188h.5v.46h-.5V.188Z" transform="translate(23.768 33.317)" fill="#fff"></path><path d="M.172.188H.666v.46H.172V.188Z" transform="translate(24.392 33.317)" fill="#fff"></path><path d="M.172.188H.666v.46H.172V.188Z" transform="translate(24.392 32.747)" fill="#fff"></path><path d="M.167.188h.5v.46h-.5V.188Z" transform="translate(25.016 33.317)" fill="#fff"></path><path d="M.167.188h.5v.46h-.5V.188Z" transform="translate(25.635 33.317)" fill="#fff"></path><path d="M.167.188h.5v.46h-.5V.188Z" transform="translate(25.635 32.747)" fill="#fff"></path><path d="M.167.188h.5v.46h-.5V.188Z" transform="translate(26.255 33.317)" fill="#fff"></path><path d="M.167.193h.5V.645h-.5V.193Z" transform="translate(26.255 32.182)" fill="#fff"></path><path d="M.167.188h.5v.46h-.5V.188Z" transform="translate(26.255 31.048)" fill="#fff"></path><path d="M.167.193h.5V.645h-.5V.193Z" transform="translate(27.502 32.182)" fill="#fff"></path><path d="M.167.193h.5V.645h-.5V.193Z" transform="translate(23.149 34.451)" fill="#fff"></path><path d="M.167.193h.5V.645h-.5V.193Z" transform="translate(23.768 34.451)" fill="#fff"></path><path d="M.172.193H.666V.645H.172V.193Z" transform="translate(24.392 34.451)" fill="#fff"></path><path d="M.167.193h.5V.645h-.5V.193Z" transform="translate(25.016 34.451)" fill="#fff"></path><path d="M.167.193h.5V.645h-.5V.193Z" transform="translate(25.635 34.451)" fill="#fff"></path><path d="M.167.193h.5V.645h-.5V.193Z" transform="translate(26.255 34.451)" fill="#fff"></path><path d="M.167.193h.5V.645h-.5V.193Z" transform="translate(26.883 34.451)" fill="#fff"></path><path d="M.167.188h.5v.46h-.5V.188Z" transform="translate(26.883 32.747)" fill="#fff"></path><path d="M.167.193h.5V.645h-.5V.193Z" transform="translate(28.122 34.451)" fill="#fff"></path><path d="M.167.188h.5v.46h-.5V.188Z" transform="translate(28.122 32.747)" fill="#fff"></path><path d="M.167.188h.5v.46h-.5V.188Z" transform="translate(26.255 35.016)" fill="#fff"></path><path d="M.172.188H.666v.46H.172V.188Z" transform="translate(24.392 35.586)" fill="#fff"></path><path d="M.167.188h.5v.46h-.5V.188Z" transform="translate(25.016 35.586)" fill="#fff"></path><path d="M.167.188h.5v.46h-.5V.188Z" transform="translate(25.635 35.586)" fill="#fff"></path><path d="M.167.188h.5v.46h-.5V.188Z" transform="translate(30.608 33.317)" fill="#fff"></path><path d="M.167.188h.5v.46h-.5V.188Z" transform="translate(31.228 30.479)" fill="#fff"></path><path d="M.167.188h.5v.46h-.5V.188Z" transform="translate(26.883 31.617)" fill="#fff"></path><path d="M.167.188h.5v.46h-.5V.188Z" transform="translate(28.122 31.617)" fill="#fff"></path><path d="M.167.188h.5v.46h-.5V.188Z" transform="translate(29.369 31.617)" fill="#fff"></path><path d="M.167.188h.5v.46h-.5V.188Z" transform="translate(29.369 30.479)" fill="#fff"></path><path d="M.167.193h.5V.645h-.5V.193Z" transform="translate(29.369 29.913)" fill="#fff"></path><path d="M.167.188h.5v.46h-.5V.188Z" transform="translate(29.369 29.348)" fill="#fff"></path><path d="M.167.188h.5v.46h-.5V.188Z" transform="translate(29.989 28.779)" fill="#fff"></path><path d="M.556,9.695A2.812,2.812,0,0,1,.171,7.05C.774,5.283,2.8,3.282,5.538,1.817,9.272-.193,11.775,0,11.708.008s-.519.109-.788.185a6.106,6.106,0,0,0-.837.327c-.2.092-.209.159.3.159h.837a.991.991,0,0,1-.242.176.41.41,0,0,1-.268.05c-.134,0-.134.008-.134.076s.1.067.1.067a1.039,1.039,0,0,1,.4,0,1.779,1.779,0,0,1-.77.218,2.819,2.819,0,0,0-.435.125c-.109.025-.319.151,0,.151a.932.932,0,0,0,.527-.1,1.063,1.063,0,0,1,.409-.125,5.3,5.3,0,0,1,.745-.05c-.025.008-.167.117-.175.2s.15.084.377.084,1.164-.067,1.164-.067l-.486.167a.792.792,0,0,0-.226,0c-.084.059-.042.059,0,.059a1.974,1.974,0,0,0,.251.041l-.15.05h-.143C4.341,2.78,1.226,6.179,1.092,7.979A1.542,1.542,0,0,0,2.1,9.653c1.289.594,6.823.9,10.5-3.182h.628v.461H12.6v.635h.712V7.007h1.121v.561l.628.05a16.782,16.782,0,0,1-6.472,3.006,16.289,16.289,0,0,1-3.849.493C3.058,11.118,1.381,10.783.556,9.695Z" transform="translate(10.009 29.905)" fill="#fff"></path><path d="M0,.293H7.593V.544H0V.293Z" transform="translate(6.756 35.523)" fill="#fff"></path><path d="M.41.777a.419.419,0,0,0,.427-.4A.435.435,0,0,0,0,.376a.419.419,0,0,0,.41.4Z" transform="translate(6.346 35.566)" fill="#fff"></path><path d="M.28,0V6.9l.276-.084V0Z" transform="translate(17.401 25.753)" fill="#fff"></path><path d="M.41.773A.419.419,0,0,0,.837.38.435.435,0,0,0,0,.38.419.419,0,0,0,.41.773Z" transform="translate(17.406 25.373)" fill="#fff"></path><path d="M.28.084V6.832H.557V0L.28.084Z" transform="translate(17.401 39.315)" fill="#fff"></path><path d="M.41.777a.419.419,0,0,0,.427-.4A.435.435,0,0,0,0,.376.419.419,0,0,0,.41.777Z" transform="translate(17.406 45.771)" fill="#fff"></path></g></g></svg> 