<?xml version="1.0" encoding="UTF-8"?> <svg xmlns="http://www.w3.org/2000/svg" xmlns:xlink="http://www.w3.org/1999/xlink" width="82" height="82" viewBox="0 0 82 82"><defs><linearGradient id="a" x1="0.5" x2="0.5" y2="1" gradientUnits="objectBoundingBox"><stop offset="0" stop-color="#ff434c"></stop><stop offset="1" stop-color="#d82831"></stop></linearGradient></defs><g transform="translate(2648.5 7180)"><rect width="82" height="82" rx="12" transform="translate(-2648.5 -7180)" fill="url(#a)"></rect><g transform="translate(-2643.5 -7175)"><path d="M0,17.092s5.182-2.051,8.908-9.846C10.984,2.918,12.55-.347,15.187.03S18.536,3.479,17.565,8,13.178,23.991,13.99,27.716c.444,1.574,1.674,3.458,3.952-.059s6.4-9.343,9.352-16.183c2.57-5.207,3.2-6.463,5.86-5.961S36.5,10.277,36.36,16.991s.753,8.473,3.2,7.024a21.006,21.006,0,0,0,4.186-3.349s2.26.837.837,4.58-6.02,6.028-9.343,5.333-5.274-2.57-5.71-6.02a37.875,37.875,0,0,1-.251-6.463S23.35,31.651,17.439,35.536,6.087,34.908,5.526,30.328,6.9,18.783,6.9,18.783s-2,2.009-4.186,1.674A3,3,0,0,1,0,17.092Z" transform="translate(13.487 17.493)" fill="#fff"></path></g></g></svg> 