<?xml version="1.0" encoding="UTF-8"?> <svg xmlns="http://www.w3.org/2000/svg" xmlns:xlink="http://www.w3.org/1999/xlink" width="82" height="82" viewBox="0 0 82 82"><defs><linearGradient id="a" x1="0.5" x2="0.5" y2="1" gradientUnits="objectBoundingBox"><stop offset="0" stop-color="#999"></stop><stop offset="1" stop-color="#898989"></stop></linearGradient></defs><g transform="translate(2357.5 6956)"><rect width="82" height="82" rx="12" transform="translate(-2357.5 -6956)" fill="url(#a)"></rect><path d="M-2.28-6.8Q-5.96.44-13.92.44A11.613,11.613,0,0,1-23.4-3.68Q-26.68-7.56-26.68-14q0-6.64,3.6-10.6a11.819,11.819,0,0,1,9.2-3.84q4.88,0,7.64,2.12A13.857,13.857,0,0,1-2.36-20.2L-9.4-17.44a9.555,9.555,0,0,0-1.68-3.08,3.7,3.7,0,0,0-2.84-1.16,3.816,3.816,0,0,0-3.52,2.16A11.367,11.367,0,0,0-18.56-14a11.168,11.168,0,0,0,1.12,5.44,3.861,3.861,0,0,0,3.6,2.24,4.1,4.1,0,0,0,2.84-1,11.064,11.064,0,0,0,2.16-2.96ZM27.2,0h-9L16.32-3.24A51.15,51.15,0,0,1,13.64-8.4a55.232,55.232,0,0,1-2.72,5.16L9.04,0H.24L9.4-14.16.56-28h9l1.56,2.72a45.914,45.914,0,0,1,2.68,5.12q.68-1.52,2.72-5.12L18.08-28h8.8L18.04-14.32Z" transform="translate(-2316.76 -6901)" fill="#fff"></path></g></svg> 