<?xml version="1.0" encoding="UTF-8"?> <svg xmlns="http://www.w3.org/2000/svg" xmlns:xlink="http://www.w3.org/1999/xlink" width="82" height="82" viewBox="0 0 82 82"><defs><linearGradient id="a" x1="0.5" y1="0.007" x2="0.5" y2="1" gradientUnits="objectBoundingBox"><stop offset="0" stop-color="#fff"></stop><stop offset="1" stop-color="#fbfbfb"></stop></linearGradient><linearGradient id="b" x1="0.915" y1="0.05" x2="-0.383" y2="0.719" gradientUnits="objectBoundingBox"><stop offset="0" stop-color="#00a0ff"></stop><stop offset="0.01" stop-color="#00a1ff"></stop><stop offset="0.26" stop-color="#00beff"></stop><stop offset="0.51" stop-color="#00d2ff"></stop><stop offset="0.76" stop-color="#00dfff"></stop><stop offset="1" stop-color="#00e3ff"></stop></linearGradient><linearGradient id="c" x1="1.08" y1="0.501" x2="-1.311" y2="0.501" gradientUnits="objectBoundingBox"><stop offset="0" stop-color="#ffe000"></stop><stop offset="0.41" stop-color="#ffbd00"></stop><stop offset="0.78" stop-color="orange"></stop><stop offset="1" stop-color="#ff9c00"></stop></linearGradient><linearGradient id="d" x1="0.862" y1="0.178" x2="-0.501" y2="1.947" gradientUnits="objectBoundingBox"><stop offset="0" stop-color="#ff3a44"></stop><stop offset="1" stop-color="#c31162"></stop></linearGradient><linearGradient id="e" x1="-0.188" y1="-0.541" x2="0.421" y2="0.249" gradientUnits="objectBoundingBox"><stop offset="0" stop-color="#32a071"></stop><stop offset="0.07" stop-color="#2da771"></stop><stop offset="0.48" stop-color="#15cf74"></stop><stop offset="0.8" stop-color="#06e775"></stop><stop offset="1" stop-color="#00f076"></stop></linearGradient></defs><g transform="translate(3133.5 6956)"><rect width="82" height="82" rx="12" transform="translate(-3133.5 -6956)" fill="url(#a)"></rect><g transform="translate(-3128.5 -6951)"><g transform="translate(19.106 18.427)"><path d="M.668.115A2.88,2.88,0,0,0,.005,2.131V33.984A2.88,2.88,0,0,0,.668,36l.115.115L18.624,18.259v-.432L.783,0Z" transform="translate(0.329 0.473)" fill="url(#b)"></path><path d="M5.947,12.341,0,6.379V5.947L5.947,0l.13.086L13.061,4.1c2.016,1.138,2.016,3.01,0,4.147l-7.042,4Z" transform="translate(18.953 12.353)" fill="url(#c)"></path><path d="M24.034,6.077,17.957,0,0,17.942a2.333,2.333,0,0,0,3,.086L24.034,6.077" transform="translate(0.997 18.531)" fill="url(#d)"></path><path d="M24.034,12.454,3,.5A2.333,2.333,0,0,0,0,.589L17.957,18.531Z" transform="translate(0.997 0)" fill="url(#e)"></path><path d="M23.9,0,3,11.866a2.39,2.39,0,0,1-2.88,0h0l-.115.1H0l.115.115h0a2.376,2.376,0,0,0,2.88,0L24.034.13Z" transform="translate(0.997 24.493)" opacity="0.2"></path><path d="M1,2.03A2.88,2.88,0,0,1,.334,0V.216A2.88,2.88,0,0,0,1,2.232l.115-.1Z" transform="translate(0 34.241)" opacity="0.12"></path><path d="M7.2,1.872,0,5.947l.13.13,7.07-4A2.52,2.52,0,0,0,8.712,0h0A2.678,2.678,0,0,1,7.2,1.872Z" transform="translate(24.814 18.531)" opacity="0.12"></path><path d="M3.658.692,31.68,16.647a2.678,2.678,0,0,1,1.512,1.872h0a2.52,2.52,0,0,0-1.512-2.074L3.658.49C1.642-.662,0,.288,0,2.592V2.88C0,.5,1.642-.446,3.658.692Z" transform="translate(0.334 0.012)" fill="#fff" opacity="0.25"></path></g></g></g></svg> 