<?xml version="1.0" encoding="UTF-8"?> <svg xmlns="http://www.w3.org/2000/svg" xmlns:xlink="http://www.w3.org/1999/xlink" width="82" height="82" viewBox="0 0 82 82"><defs><linearGradient id="a" x1="0.5" x2="0.5" y2="1" gradientUnits="objectBoundingBox"><stop offset="0" stop-color="#964d9c"></stop><stop offset="1" stop-color="#7b2183"></stop></linearGradient></defs><g transform="translate(2357.5 6956)"><rect width="82" height="82" rx="12" transform="translate(-2357.5 -6956)" fill="url(#a)"></rect><g transform="translate(-2352.5 -6951)"><path d="M34.025,0H3.3A3.273,3.273,0,0,0,0,3.35V24.682A3.349,3.349,0,0,0,3.3,28.03H34.025a3.349,3.349,0,0,0,3.349-3.349V3.316A3.282,3.282,0,0,0,34.025,0Z" transform="translate(18.167 19.397)" fill="#fff"></path><path d="M0,13.713a1.49,1.49,0,0,1,.988-1.4c3.491-1.356,4.487-2.026,4.772-2.269V9.929A5.752,5.752,0,0,1,4.739,8.012a2.21,2.21,0,0,1-.62-1.256,2.168,2.168,0,0,1,.218-1.373V3.943C4.337,1.507,5.936,0,8.523,0s4.186,1.473,4.186,3.943v1.44a2.193,2.193,0,0,1,.26,1.381,2.143,2.143,0,0,1-.62,1.247,5.752,5.752,0,0,1-1.021,1.917v.159A20.153,20.153,0,0,0,16.1,12.315a1.49,1.49,0,0,1,.946,1.4v1.926a1.5,1.5,0,0,1-1.482,1.5H1.482A1.5,1.5,0,0,1,0,15.639Z" transform="translate(28.314 22.487)" fill="#8d3e93"></path><path d="M34.234,1.34a1.75,1.75,0,0,1-1.758,1.775H1.75A1.741,1.741,0,0,1,0,1.34V0H34.234Z" transform="translate(19.716 42.74)" fill="#8d3e93"></path><path d="M12.876.011A.77.77,0,0,0,12.232.9l.712,4.345H1.6L2.294.932A.779.779,0,0,0,.762.681L0,5.42a1.465,1.465,0,0,0,1.524,1.39H13a1.473,1.473,0,0,0,1.515-1.566L13.772.631a.779.779,0,0,0-.9-.62Z" transform="translate(29.118 50.012)" fill="#fff"></path></g></g></svg> 